<svg xmlns:xlink="http://www.w3.org/1999/xlink" xmlns="http://www.w3.org/2000/svg" fill="none" viewBox="0 0 29 55" height="56" width="56"><path fill="#66E3C4" d="M15.24 28.454c0-1.35 11.188-4.437 11.188-11.96-2.507 2.218-6.944 3.761-11.96 3.761-5.016 0-9.452-1.543-11.96-3.761 0 7.716 11.189 10.513 11.189 11.96 0 1.736-11.19 3.28-11.19 13.214 0 3.955 5.402 7.138 12.058 7.138 6.655 0 12.056-3.183 12.056-7.138C26.428 31.637 15.24 30.19 15.24 28.454Z"></path><path fill="#FFFFFF" d="M14.372 50.732c7.937 0 14.371-3.714 14.371-8.295 0-4.581-6.434-8.295-14.371-8.295C6.434 34.142 0 37.856 0 42.437c0 4.581 6.434 8.295 14.372 8.295Z"></path><path fill="#0ABB92" d="M28.743 46.104c0 4.533-6.366 8.295-14.371 8.295C6.366 54.399 0 50.734 0 46.104v-3.665c0 4.533 6.366 8.295 14.372 8.295 8.005 0 14.371-3.666 14.371-8.295v3.665Z"></path><path fill="#66E3C4" d="M19.195 50.252v3.665c5.595-1.158 9.453-4.244 9.453-7.813v-3.665c.096 3.665-3.858 6.655-9.453 7.813Z"></path><path fill="#0ABB92" d="M14.468 23.632c-2.026 0-3.665.675-3.665 1.543 0 .097 0 .29.096.386.579 1.254 3.183 1.64 3.28 2.99 0 .386.192 5.402.192 5.691 0-.29.193-5.305.193-5.69.193-1.351 2.798-1.737 3.28-2.99.096-.097.096-.194.096-.387.097-.771-1.447-1.543-3.472-1.543Z"></path><path fill="#0ABB92" d="M25.464 41.764c0-5.305-11.092-9.163-11.092-10.61 0 1.35-11.093 5.208-11.093 10.61v.096c0 3.376 4.92 6.077 10.996 6.173h.193c6.076-.096 10.996-2.797 10.996-6.27Z"></path><path fill="#FFFFFF" d="M21.799 48.226c1.929-1.157 3.183-2.894 3.183-5.498 0-7.813-10.128-11.96-10.128-14.275 0-1.93 10.803-5.209 10.803-13.118l-2.315.772c0 7.91-8.584 10.031-8.584 12.442 0 2.701 7.909 6.463 7.909 14.276 0 2.604-1.254 4.34-3.183 5.497"></path><path fill="#0ABB92" d="M28.743 11.962c0 4.533-6.366 8.295-14.371 8.295C6.366 20.257 0 16.592 0 11.962V8.297c0 4.533 6.366 8.295 14.372 8.295 8.005 0 14.371-3.666 14.371-8.295v3.665Z"></path><path fill="#FFFFFF" d="M14.372 16.59c7.937 0 14.371-3.714 14.371-8.295C28.743 3.714 22.31 0 14.372 0 6.434 0 0 3.714 0 8.295c0 4.581 6.434 8.295 14.372 8.295Z"></path><path fill="#66E3C4" d="M19.195 16.11v3.665c5.595-1.158 9.453-4.244 9.453-7.813V8.297c.096 3.665-3.858 6.655-9.453 7.812Z"></path></svg>