<svg xmlns:xlink="http://www.w3.org/1999/xlink" xmlns="http://www.w3.org/2000/svg" width="100" height="25"><g><path d="M0,9.246650906225504L100,9.246650906225504L100,9.246650906225504L0,9.246650906225504Z" stroke="#7C7E8C" stroke-opacity="0.3" shape-rendering="geometricPrecision" stroke-width="1" style="stroke-dasharray: 3, 1.5;"></path><path d="M0,1L1.3333333333333333,6.328605200945702L2.6666666666666665,4.8061465721040015L4,3.863672182821304L5.333333333333333,3.700551615445484L6.666666666666667,5.18676122931447L8,6.763593380614829L9.333333333333334,5.839243498818078L10.666666666666666,5.712371946414478L12,7.760441292356354L13.333333333333334,7.1442080378251305L14.666666666666666,4.878644602049103L16,4.516154452324912L17.333333333333332,3.9905437352245734L18.666666666666668,3.646178092986659L20,2.2143420015761706L21.333333333333332,3.1386918833729247L22.666666666666668,4.969267139480152L24,2.9393223010245535L25.333333333333332,2.9936958234830477L26.666666666666668,2.9030732860520025L28,4.244286840031769L29.333333333333332,4.226162332545496L30.666666666666668,5.476753349093887L32,4.89676910953505L33.333333333333336,4.262411347517716L34.666666666666664,4.624901497241908L36,4.552403467297136L37.333333333333336,4.534278959810859L38.666666666666664,4.534278959810859L40,4.262411347517716L41.333333333333336,7.035460992907975L42.666666666666664,5.857368006304352L44,5.966115051221678L45.333333333333336,5.114263199369695L46.666666666666664,4.715524034672956L48,5.150512214342246L49.333333333333336,6.582348305752735L50.666666666666664,6.455476753349135L52,6.328605200945702L53.333333333333336,7.397951142632163L54.666666666666664,6.836091410559604L56,8.249802994483979L57.333333333333336,9.029156816391023L58.666666666666664,12.019700551615596L60,13.01654846335712L61.333333333333336,13.451536643026083L62.666666666666664,15.499605988967794L64,15.155240346729714L65.33333333333333,12.980299448384569L66.66666666666667,11.820330969267225L68,15.137115839243602L69.33333333333333,13.977147360126093L70.66666666666667,16.55082742316798L72,17.873916469661143L73.33333333333333,18.70764381402685L74.66666666666667,21.28132387706857L76,20.46572104018914L77.33333333333333,21.970055161544565L78.66666666666667,20.882584712371994L80,20.882584712371994L81.33333333333333,21.13632781717886L82.66666666666667,21.661938534279034L84,22.695035460992948L85.33333333333333,20.266351457840933L86.66666666666667,20.936958234830655L88,21.57131599684799L89.33333333333333,21.33569739952723L90.66666666666667,20.900709219858268L92,21.988179669030842L93.33333333333333,22.187549251379046L94.66666666666667,22.35066981875503L96,20.791962174940945L97.33333333333333,21.299448384554847L98.66666666666667,24L98.66666666666667,24L97.33333333333333,21.299448384554847L96,20.791962174940945L94.66666666666667,22.35066981875503L93.33333333333333,22.187549251379046L92,21.988179669030842L90.66666666666667,20.900709219858268L89.33333333333333,21.33569739952723L88,21.57131599684799L86.66666666666667,20.936958234830655L85.33333333333333,20.266351457840933L84,22.695035460992948L82.66666666666667,21.661938534279034L81.33333333333333,21.13632781717886L80,20.882584712371994L78.66666666666667,20.882584712371994L77.33333333333333,21.970055161544565L76,20.46572104018914L74.66666666666667,21.28132387706857L73.33333333333333,18.70764381402685L72,17.873916469661143L70.66666666666667,16.55082742316798L69.33333333333333,13.977147360126093L68,15.137115839243602L66.66666666666667,11.820330969267225L65.33333333333333,12.980299448384569L64,15.155240346729714L62.666666666666664,15.499605988967794L61.333333333333336,13.451536643026083L60,13.01654846335712L58.666666666666664,12.019700551615596L57.333333333333336,9.029156816391023L56,8.249802994483979L54.666666666666664,6.836091410559604L53.333333333333336,7.397951142632163L52,6.328605200945702L50.666666666666664,6.455476753349135L49.333333333333336,6.582348305752735L48,5.150512214342246L46.666666666666664,4.715524034672956L45.333333333333336,5.114263199369695L44,5.966115051221678L42.666666666666664,5.857368006304352L41.333333333333336,7.035460992907975L40,4.262411347517716L38.666666666666664,4.534278959810859L37.333333333333336,4.534278959810859L36,4.552403467297136L34.666666666666664,4.624901497241908L33.333333333333336,4.262411347517716L32,4.89676910953505L30.666666666666668,5.476753349093887L29.333333333333332,4.226162332545496L28,4.244286840031769L26.666666666666668,2.9030732860520025L25.333333333333332,2.9936958234830477L24,2.9393223010245535L22.666666666666668,4.969267139480152L21.333333333333332,3.1386918833729247L20,2.2143420015761706L18.666666666666668,3.646178092986659L17.333333333333332,3.9905437352245734L16,4.516154452324912L14.666666666666666,4.878644602049103L13.333333333333334,7.1442080378251305L12,7.760441292356354L10.666666666666666,5.712371946414478L9.333333333333334,5.839243498818078L8,6.763593380614829L6.666666666666667,5.18676122931447L5.333333333333333,3.700551615445484L4,3.863672182821304L2.6666666666666665,4.8061465721040015L1.3333333333333333,6.328605200945702L0,1Z" stroke="#EB5B3C" stroke-opacity="1" shape-rendering="geometricPrecision" stroke-width="1.8px"></path></g></svg>