<svg xmlns:xlink="http://www.w3.org/1999/xlink" xmlns="http://www.w3.org/2000/svg" fill="none" viewBox="0 0 52 48" height="51.69230769230769" width="56"><path fill="#0ABB92" d="M51.168 23.036a.5.5 0 0 0-.037-.886l-8.273-3.875a.5.5 0 0 0-.462.019L.72 42.284a.5.5 0 0 0-.017.857l6.92 4.352a1 1 0 0 0 1.03.02l42.515-24.477Z"></path><path fill="#FFFFFF" d="m8.324 46.99 42.453-24.53v-4.925L8.397 42.017l-.073 4.973Z"></path><path fill="#66E3C4" d="m50.779 17.535-8.774-3.63L.871 37.684l7.527 4.332 42.38-24.482Z"></path><path fill="#0ABB92" d="M8.398 41.968.871 37.684v4.732l7.455 4.538.072-4.986Z"></path><path fill="#66E3C4" d="m12.14 39.888 35.398-20.44c0-.436-.024-.86-.048-1.283 0-.121-.012-.242-.024-.351-.024-.339-.06-.666-.097-.98 0-.085-.024-.17-.036-.255a26.95 26.95 0 0 0-.194-1.125c-.024-.097-.036-.181-.06-.266a9.655 9.655 0 0 0-.218-.847c-.024-.097-.049-.194-.085-.279a11.927 11.927 0 0 0-.351-.992c-.012-.036-.024-.06-.036-.097a13.33 13.33 0 0 0-.375-.835c-.037-.072-.073-.157-.121-.23a7.812 7.812 0 0 0-.436-.762c-.012-.025-.036-.06-.049-.085a9.8 9.8 0 0 0-1.198-1.5l-.108-.11a8.532 8.532 0 0 0-.702-.617s-.025-.012-.037-.024a9.583 9.583 0 0 0-.714-.508c-.036-.024-.084-.049-.12-.073a8.525 8.525 0 0 0-1.683-.786c-.036 0-.06-.025-.097-.037a7.327 7.327 0 0 0-.883-.242h-.024a9.139 9.139 0 0 0-1.005-.157h-.024a8.935 8.935 0 0 0-.992-.048h-.11c-.265 0-.532 0-.81.024h-.073c-.605.048-1.222.145-1.863.29-.049 0-.11.024-.158.036-.254.061-.496.122-.75.194l-.339.109c-.194.06-.387.121-.593.194-.133.048-.278.096-.411.157a9.3 9.3 0 0 0-.52.206 7.96 7.96 0 0 0-.473.205c-.157.073-.326.158-.484.23-.17.085-.326.158-.496.242l-.472.255c-.157.084-.314.169-.484.266-9.778 5.64-17.668 19.326-17.644 30.557v-.036Z"></path><path fill="#FFFFFF" d="M46.386 18.733C46.35 7.503 38.411 2.965 28.633 8.616c-9.778 5.64-17.669 19.327-17.645 30.557l35.398-20.44Z"></path><path fill="#66E3C4" d="m18.036 24.555-1.065-.569c1.9-3.582 4.32-6.862 7.019-9.512l.847.86c-2.614 2.565-4.962 5.748-6.801 9.209v.012Z"></path><path fill="#0ABB92" d="m27.716 12.84-.726-.968a26.504 26.504 0 0 1 2.542-1.695c3.158-1.815 6.232-2.541 8.713-2.02l-.254 1.185c-2.179-.46-4.974.218-7.854 1.876a24.718 24.718 0 0 0-2.42 1.61v.012ZM44.416 16.228c-.34-2.517-1.186-4.575-2.493-5.978l-.884.823c1.222 1.319 1.985 3.328 2.239 5.82l1.15-.665h-.012Z"></path><path fill="#66E3C4" d="M14.695 33.389c.4-1.767.968-3.57 1.706-5.362l-1.125-.46c-.908 2.227-1.573 4.454-1.985 6.632l1.404-.81Z"></path><path fill="#0ABB92" d="M29.746 29.637s0 .072.012.109c0 .048.012.109.024.157 0 .049.025.097.037.145 0 .037.012.073.024.11a.74.74 0 0 0 .06.144l.025.061s.048.109.072.157l.024.037s.06.097.097.145c.06.06.097.109.146.157.048.049.108.085.157.133.339.242.774.303 1.27.182.11-.024.218-.06.327-.11l.049-.023c.12-.049.23-.097.35-.17 1.477-.859 2.675-2.916 2.663-4.623 0-1.694-1.21-2.384-2.687-1.524-.096.06-.205.12-.302.193a.368.368 0 0 1-.085.06 1.393 1.393 0 0 0-.206.17.606.606 0 0 0-.096.085c-.073.06-.134.12-.206.181l-.073.073a4.423 4.423 0 0 0-.23.242 5.938 5.938 0 0 0-1.452 3.885v.024Z"></path><path fill="#66E3C4" d="M31.803 28.245c0-.46.326-1.029.726-1.259.181-.108.339-.12.472-.072h.024c.012 0 .036.012.048.024l1.102.654c-.133-.073-.315-.061-.509.06-.399.23-.726.799-.726 1.259 0 .217.073.375.206.46l-1.113-.666h-.025c-.12-.085-.193-.23-.193-.448l-.012-.012Z"></path><path fill="#FFFFFF" d="M32.94 28.923c0-.46.326-1.029.726-1.259.193-.109.375-.121.508-.06.133.072.23.242.23.472 0 .46-.327 1.028-.726 1.258-.206.121-.4.121-.533.036-.12-.084-.206-.23-.206-.46v.013ZM49.377 18.382c-.206-5.567-2.3-9.802-5.736-11.969 0 0-.012 0-.024-.012l-.17-.096c-1.634-.98-3.57-1.513-5.724-1.513-2.82 0-5.797.907-8.883 2.674-5.01 2.893-9.693 7.818-13.19 13.869-3.498 6.05-5.41 12.562-5.398 18.322 0 .436.036.86.06 1.283l1.828-1.053v-.23C12.104 28.427 20.006 14.74 29.784 9.1c2.868-1.658 5.58-2.432 7.975-2.42 5.785.024 9.754 4.598 9.779 12.537v.242l1.851-1.065-.012-.012Z"></path><path fill="#0ABB92" d="M10.323 40.928c-.024-.423-.06-.847-.06-1.283-.012-5.76 1.9-12.27 5.397-18.322 3.498-6.05 8.181-10.976 13.191-13.868 3.086-1.78 6.063-2.675 8.883-2.675 2.166 0 4.09.533 5.724 1.513l-7.733-4.647-.29-.182-.134-.084C33.716.484 31.864 0 29.807 0c-2.82 0-5.796.908-8.883 2.674-5.01 2.893-9.693 7.818-13.19 13.87-3.498 6.074-5.422 12.573-5.398 18.333 0 .654.036 1.295.097 1.912.218.11 7.612 4.309 7.612 4.309l.29-.17h-.012Z"></path><path fill="#66E3C4" d="m35.725 1.646-.29-.182-.134-.084C33.716.484 31.865 0 29.807 0c-2.82 0-5.796.908-8.882 2.674-3.849 2.227-7.504 5.652-10.577 9.863a18.231 18.231 0 0 0 4.55 10.202c.254-.484.496-.956.774-1.44 3.498-6.05 8.181-10.976 13.191-13.868 3.086-1.78 6.063-2.675 8.883-2.675 2.166 0 4.09.532 5.724 1.513l-7.733-4.647-.012.024Z"></path><path fill="#0ABB92" d="m32.408 26.612 8.375-14.498-6.378 13.965"></path></svg>