<svg xmlns:xlink="http://www.w3.org/1999/xlink" xmlns="http://www.w3.org/2000/svg" fill="none" viewBox="0 0 43 36" height="56" width="56"><g clip-path="url(#a)" fill="none"><path fill="#0ABB92" d="m9 32.24.4 1.8.3 1 2.1-1.3c.6-.2 1-.9 1-1.9v-15.3l-4.6-2.6-2.3 1.4 2.3 11.8v2c0 1 .4 2.2.8 3.1Z"></path><path fill="#66E3C4" d="M5.9 30.54v-15.3l4.6 2.6v15.3c0 1.7-1 2.5-2.3 1.8-1.3-.7-2.4-2.7-2.3-4.4ZM1.3 10.84h.1l7.9 4.3L15 4.44 7.3.34c-.8-.5-2-.5-3.2.3-2.3 1.5-4.2 4.9-4.1 7.6 0 1.3.5 2.3 1.3 2.6Z"></path><path fill="#FFFFFF" d="M3.2 14.34c0 .1.1.1.1.1l10.2 5.5 7.4-14L11 .54c-1-.7-2.5-.6-4.1.4-3 1.8-5.4 6.2-5.3 9.8 0 1.7.6 2.9 1.6 3.6Z"></path><path fill="#66E3C4" d="M2.8 12.44c.1 2 .9 2.8 2 4l12.6 12.9c.2.3.4.6.6 1l1 1.7 16-29.2-2.1.1c-.5.1-.9.1-1.4.1L13 .64c-1.3-.2-2.6-.2-4.1.7-3.4 2.1-6 7-6.1 11.1Z"></path><path fill="#FFFFFF" d="M19.9 32.44h.1l1.8 1-.3-.4c2 .5 4.3 0 6.9-1.6 6.5-4 11.6-13.5 11.4-21.1-.1-3-1-5.3-2.4-6.7l.7.1-2-1.1c-2.2-1.2-5.2-.9-8.4 1.1-6.5 4-11.6 13.5-11.4 21.1.1 3.8 1.5 6.4 3.6 7.6Z"></path><path fill="#FFFFFF" d="m22.5 34.14-.3-.4c2 .5 4.3 0 6.9-1.6 6.5-4 11.6-13.5 11.4-21.1-.1-3-1-5.3-2.4-6.7l.6.1c-.1-.1-.2-.1-.3-.2l-.3-.2c-2.2-1.2-5.1-.9-8.3 1.1-6.5 4-11.6 13.5-11.4 21.1.1 4.1 1.7 6.8 4.1 7.9Z"></path><path fill="#66E3C4" d="M39.264 23.9c4.444-8.207 4.188-16.95-.572-19.527-4.76-2.577-12.22 1.988-16.664 10.196-4.443 8.208-4.187 16.951.573 19.528 4.76 2.577 12.22-1.988 16.663-10.196Z"></path><path fill="#0ABB92" d="M38.21 23.33c3.917-7.237 3.707-14.937-.47-17.198-4.176-2.261-10.738 1.772-14.656 9.009-3.918 7.236-3.708 14.936.47 17.197C27.73 34.6 34.291 30.566 38.21 23.33Z"></path><path fill="#FFFFFF" d="M8.46 4.06c.49.14.72.2 1.16.32-1.2 1.32-2.33 3.13-3 5.21-.38-.25-.58-.38-1-.66.63-1.99 1.7-3.69 2.84-4.88v.01ZM10.889 4.75c.74.21 1.07.31 1.7.49.23.07.42.15.59.25.17.1.28.23.34.38.06.16.06.35 0 .59s-.21.54-.44.9c-.26.41-.52.75-.76.98-.24.23-.48.39-.71.46-.23.08-.46.09-.68.04-.23-.05-.45-.14-.68-.26-.22-.11-.33-.17-.57-.29-.58 1.07-.85 1.65-1.15 2.58-.31-.2-.47-.31-.81-.53.71-2.18 1.89-4.11 3.17-5.58v-.01Zm-.17 2.78c.11.05.23.1.36.14.13.04.26.05.39.04.14-.02.27-.08.41-.17.14-.1.27-.26.41-.47.12-.19.2-.35.21-.48.02-.13 0-.23-.06-.32a.499.499 0 0 0-.24-.21c-.1-.05-.21-.1-.32-.14-.24-.08-.36-.12-.61-.21-.41.56-.63.9-1.05 1.61.2.09.3.14.49.22l.01-.01ZM12.61 9.03c.32-.58.69-1.07 1.07-1.47.39-.4.77-.69 1.16-.89.39-.21.76-.32 1.14-.37.38-.05.74-.02 1.1.08.36.1.67.25.89.48.22.23.37.53.4.93.04.4-.03.89-.2 1.48s-.46 1.26-.84 1.97c-.37.7-.76 1.3-1.16 1.76-.4.47-.77.8-1.14 1.01-.37.21-.72.29-1.06.28-.34-.01-.68-.13-.99-.34-.31-.2-.56-.46-.76-.78-.19-.32-.32-.68-.37-1.1-.05-.42-.02-.89.1-1.41.12-.52.34-1.07.66-1.64v.01Zm.78.27c-.22.4-.39.79-.5 1.17-.11.38-.16.72-.16 1.03 0 .31.06.58.17.82.11.24.27.42.48.55.21.13.44.19.68.16.24-.03.49-.13.75-.32.26-.18.52-.44.79-.78s.53-.74.78-1.2c.23-.43.41-.84.54-1.23.12-.39.19-.73.19-1.03 0-.3-.05-.54-.17-.74-.12-.2-.3-.33-.53-.41-.23-.08-.48-.09-.74-.03s-.52.17-.79.34-.53.4-.79.68-.49.61-.7.99Z"></path><path fill="#66E3C4" d="M23.07 15.14a25.01 25.01 0 0 0-1.83 4.29l8.06 2.51 2.8-5.2-6.83-4.99c-.79 1.03-1.54 2.16-2.2 3.39Z"></path><path fill="#FFFFFF" d="M30.5 16.84c1.1-.7 2.1-.1 2.1 1.2s-.9 3-2 3.7c-1.1.7-2.1.1-2.1-1.2s.9-3 2-3.7Z"></path></g><defs><clipPath id="a"><path fill="#fff" d="M0 0h42.43v35.2H0z"></path></clipPath></defs></svg>