<svg xmlns:xlink="http://www.w3.org/1999/xlink" xmlns="http://www.w3.org/2000/svg" fill="none" viewBox="0 0 43 49" height="56" width="56"><path fill="#66E3C4" d="M23.993 32.698c0-.44-.28-.88-.85-1.22-.15-.09-.3-.16-.47-.23-.12-.05-.24-.09-.37-.12-.1-.03-.21-.06-.32-.08-.1-.02-.2-.04-.3-.05l-.29-.03c-.1 0-.2-.01-.3-.02h-.31a5.197 5.197 0 0 0-.73.07c-.19.04-.38.08-.57.14-.22.07-.44.16-.63.27-.02.01-.05.03-.07.04-.15.09-.28.19-.39.29-.07.06-.13.13-.19.2a.94.94 0 0 0-.12.18c-.03.06-.06.11-.08.17-.02.06-.04.11-.05.17-.01.06-.02.12-.02.17v.03l-.04 13.91c0 .06.02.12.03.18 0 .05 0 .1.02.14.02.07.06.13.09.19.02.04.04.09.07.13.05.07.11.13.17.2.03.03.06.07.09.11.11.1.23.19.38.28.15.09.3.16.47.23.12.05.24.09.37.12l.11.03c.03 0 .06.02.09.02.04 0 .08.02.12.03.1.02.2.04.3.05h.14c.05 0 .11.01.16.02.1 0 .2.01.3.02h.31c.11 0 .23-.01.34-.02h.02c.12-.01.24-.03.36-.05.03 0 .06-.02.09-.02.1-.02.2-.05.3-.07.06-.02.12-.03.18-.04.02 0 .04-.02.06-.02.2-.07.4-.15.57-.25.02-.01.05-.03.07-.04.06-.03.09-.07.14-.11.07-.05.15-.1.21-.15.01 0 .03-.02.04-.03.07-.06.13-.13.19-.2 0 0 .01-.02.02-.03.01-.01.02-.03.03-.04.03-.04.05-.07.07-.11.03-.06.06-.11.08-.17v-.02c.02-.05.03-.1.04-.14.01-.06.02-.12.02-.17v-.03l.04-13.91.01-.02Z"></path><path fill="#0ABB92" d="m20.954 34.438-.93-3.41c-.18.03-.36.08-.53.13-.22.07-.44.16-.63.27-.02.01-.05.03-.07.04-.15.09-.28.19-.39.29-.07.06-.13.13-.19.2a.94.94 0 0 0-.12.18c-.03.06-.06.11-.08.17-.02.06-.04.11-.05.17-.01.06-.02.12-.02.17v.03l-.04 13.91c0 .06.02.12.03.18 0 .05 0 .1.02.14.02.07.06.13.09.19.02.04.04.09.07.13.05.07.11.13.17.2.03.03.06.07.09.11.11.1.23.19.38.28.15.09.3.16.47.23.12.05.24.09.37.12l.11.03c.03 0 .06.02.09.02.04 0 .08.02.12.03.1.02.2.04.3.05h.14c.05 0 .11.01.16.02.1 0 .2.01.3.02h.14v-13.91.01Z"></path><path fill="#66E3C4" d="M41.794 10.258c-.19-.69-.49-1.38-.89-2.05-.29-.48-.63-.96-1.03-1.42-.32-.37-.67-.74-1.06-1.09-.34-.31-.71-.61-1.1-.91-.35-.27-.73-.52-1.12-.78-.15-.1-.31-.19-.47-.29a20.281 20.281 0 0 0-1.82-.97c-.37-.18-.75-.34-1.14-.5-.37-.15-.75-.3-1.14-.44-.37-.13-.75-.26-1.13-.37-.36-.11-.72-.22-1.09-.31-.34-.09-.69-.18-1.04-.26-.33-.08-.66-.15-1-.21-.28-.06-.57-.11-.86-.16-.28-.05-.56-.09-.84-.13l-.69-.09c-.23-.03-.46-.05-.69-.08l-.58-.06c-.18-.02-.37-.03-.55-.04-.18-.01-.37-.02-.55-.04-.16 0-.31-.02-.47-.02-.15 0-.3-.01-.46-.02-.15 0-.3 0-.46-.01h-1.67c-.14 0-.27 0-.41.01-.13 0-.27.01-.4.02-.13 0-.27.01-.4.02-.13 0-.27.02-.4.03l-.44.03c-.16.01-.32.03-.49.04-.16.02-.32.03-.48.05l-.51.06c-.26.03-.52.07-.79.11a31.088 31.088 0 0 0-2.52.48 34.68 34.68 0 0 0-1.73.46l-.57.18c-.18.06-.36.12-.53.18-.15.05-.31.11-.46.16-.15.06-.3.11-.45.17l-.45.18c-.16.06-.32.13-.47.2-.16.07-.31.14-.46.21-.16.08-.33.15-.49.23-.19.09-.37.18-.56.28-.18.1-.36.19-.54.29 0 0-.01 0-.02.01-.24.13-.46.27-.69.4-.25.16-.5.32-.74.48-.3.21-.59.42-.87.64a13.413 13.413 0 0 0-1.89 1.79c-.27.31-.51.63-.73.95-.2.3-.38.6-.54.9-.15.29-.28.58-.4.87-.11.28-.2.55-.27.83-.07.27-.13.54-.17.81-.04.26-.06.53-.07.79 0 .26 0 .52.01.78.02.26.05.51.1.77.05.25.11.51.18.76.07.25.16.51.26.76a8.568 8.568 0 0 0 .8 1.52c.17.26.35.51.55.77.21.26.43.52.67.78.1.11.21.22.32.32l15.47 15.25c.12.12.27.23.44.33 1.16.7 3.07.71 4.27.04.2-.11.36-.23.49-.36l15.56-15.16c2.55-2.48 3.44-5.39 2.66-8.17h.01Z"></path><path fill="#0ABB92" d="m11.913 1.188-.52.15-.57.18c-.18.06-.36.12-.53.18-.15.05-.31.11-.46.16-.15.06-.3.11-.45.17l-.45.18c-.16.06-.32.13-.47.2-.16.07-.31.14-.46.21-.16.08-.33.15-.49.23-.19.09-.37.18-.56.28-.18.1-.36.19-.54.29 0 0-.01 0-.02.01-.24.13-.46.27-.69.4-.25.16-.5.32-.74.48-.3.21-.59.42-.87.64a13.413 13.413 0 0 0-1.89 1.79c-.27.31-.51.63-.73.95-.2.3-.38.6-.54.9-.15.29-.28.58-.4.87-.11.28-.2.55-.27.83-.07.27-.13.54-.17.81-.04.26-.06.53-.07.79 0 .26 0 .52.01.78.02.26.05.51.1.77.05.25.11.51.18.76.07.25.16.51.26.76a8.568 8.568 0 0 0 .8 1.52c.17.26.35.51.55.77.21.26.43.52.67.78.1.11.21.22.32.32l15.47 15.25c.12.12.27.23.44.33.59.35 1.37.53 2.15.53l-9.06-33.27Z"></path><path fill="#FFFFFF" d="M35.693 20.938c-8.33 4.67-21.64 4.54-29.74-.3-8.1-4.84-7.91-12.55.42-17.22 8.33-4.67 21.65-4.54 29.74.3 8.1 4.84 7.91 12.55-.42 17.23v-.01Z"></path><path fill="#0ABB92" d="M33.293 19.508c-6.97 3.91-18.1 3.8-24.87-.25s-6.61-10.5.35-14.41c6.97-3.91 18.1-3.8 24.87.25s6.61 10.5-.35 14.41Z"></path><path fill="#66E3C4" d="M33.643 5.098c-5.49-3.28-13.85-3.97-20.53-2.03-1.2 2.46-1.9 5.21-1.9 8.13 0 3.86 1.19 7.45 3.21 10.42 6.27 1.48 13.71.8 18.86-2.1 6.97-3.91 7.12-10.36.35-14.41l.01-.01Z"></path><path fill="#0ABB92" d="M8.424 19.258c6.77 4.05 17.91 4.16 24.87.25 1.65-.92 2.9-1.99 3.78-3.13-.82-1.06-1.95-2.07-3.43-2.95-6.77-4.05-17.91-4.16-24.87-.25-1.65.92-2.9 1.99-3.78 3.13.82 1.06 1.95 2.07 3.43 2.95Z"></path></svg>