<svg xmlns:xlink="http://www.w3.org/1999/xlink" xmlns="http://www.w3.org/2000/svg" fill="none" viewBox="0 0 43 48" height="56" width="56"><path fill="#66E3C4" d="m36.31.263 6.262 30.517-29.647 17.217-6.263-30.739L36.31.263Z"></path><path fill="#FFFFFF" d="M13.149 44.693 7.588 17.679 36.503 1.194l5.585 27.217-28.94 16.282Z"></path><path fill="#0ABB92" d="m34.531 15.62-4.913 2.832-1.272-5.321 5.01-2.88 1.175 5.37ZM26.818 20.114l-4.913 2.831-1.266-5.327 5.004-2.873 1.175 5.369ZM19.102 24.606l-4.914 2.826-1.265-5.322 5.003-2.879 1.176 5.375ZM29.855 29.657l-4.913 2.831-1.265-5.32 5.003-2.88 1.175 5.369ZM37.951 24.597l-4.913 2.831-1.266-5.32 5.003-2.88 1.176 5.369ZM21.75 34.48l-4.913 2.832-1.266-5.322 5.003-2.88 1.176 5.37Z"></path><path fill="#66E3C4" d="M6.663 17.261 12.926 48l-6.27-5.423L.4 40.765l6.263-23.504Z"></path><path fill="#0ABB92" d="m.49 40.795-.09-.03 6.263-23.504 3.647 17.907-9.82 5.627ZM6.555 42.547l4.71-2.7L12.924 48l-6.268-5.423-.102-.03Z"></path><path fill="#0ABB92" d="M6.663 17.261 12.926 48l-6.27-5.423L.4 40.771l6.263-23.504v-.006Zm.078 25.16 5.92 5.123-6.016-29.539L.61 40.651l6.13 1.77ZM9.143 18.211l1.602-.917.222 1.08-1.602.917-.222-1.08ZM13.145 15.922l1.602-.918.216 1.08-1.596.918-.222-1.08ZM17.143 13.63l1.602-.918.222 1.074-1.602.918-.222-1.074ZM21.133 11.332l1.602-.918.222 1.08-1.602.918-.222-1.08ZM25.137 9.04l1.602-.917.222 1.08-1.602.917-.222-1.08ZM29.133 6.75l1.602-.918.222 1.074-1.602.918-.222-1.074ZM33.135 4.451l1.596-.918.222 1.08-1.602.918-.216-1.08Z"></path><path fill="#66E3C4" d="M7.058 13.923c.438-.252.996-.21 1.571.12 1.068.618 1.908 2.063 1.908 3.287 0 .54-.162.978-.474 1.26-.21.192-.468.294-.756.306l-.138-.678c.18.018.324-.03.438-.132.162-.144.252-.414.252-.756 0-.972-.72-2.213-1.566-2.7-.353-.203-.677-.245-.893-.125-.216.12-.336.42-.336.821 0 .45.15.966.42 1.464l-.594.33c-.33-.594-.51-1.23-.51-1.788 0-.653.24-1.157.672-1.41h.006ZM11.058 11.634c.438-.252.995-.21 1.571.126 1.068.617 1.908 2.063 1.908 3.287 0 .54-.162.978-.474 1.26-.21.192-.468.294-.756.306l-.138-.678c.18.018.324-.03.438-.132.162-.144.252-.414.252-.756 0-.972-.72-2.214-1.566-2.7-.353-.203-.677-.245-.893-.125-.216.12-.336.42-.336.821 0 .45.15.966.42 1.464l-.594.33c-.33-.594-.51-1.23-.51-1.788 0-.653.24-1.157.672-1.41l.006-.005ZM15.056 9.335c.438-.252.996-.21 1.572.12 1.067.618 1.907 2.064 1.907 3.288 0 .54-.162.978-.474 1.26-.21.191-.468.293-.756.306l-.138-.678c.18.018.324-.03.438-.132.162-.144.252-.414.252-.756 0-.972-.72-2.214-1.566-2.7-.353-.204-.677-.246-.893-.126-.216.12-.336.42-.336.822 0 .45.15.966.42 1.464l-.594.33c-.33-.594-.51-1.23-.51-1.788 0-.654.24-1.158.672-1.41h.006ZM19.056 7.044c.438-.252.996-.21 1.572.12 1.067.618 1.907 2.063 1.907 3.287 0 .54-.162.978-.474 1.26-.21.192-.468.294-.756.306l-.138-.678c.18.018.324-.03.438-.132.162-.144.252-.414.252-.756 0-.972-.72-2.213-1.566-2.7-.353-.203-.677-.245-.893-.125-.216.12-.336.42-.336.822 0 .45.15.965.42 1.463l-.594.33c-.33-.594-.51-1.23-.51-1.787 0-.654.24-1.158.672-1.41h.006ZM23.052 4.752c.438-.252.996-.21 1.572.12 1.067.618 1.907 2.063 1.907 3.287 0 .54-.162.978-.474 1.26-.21.192-.468.294-.755.306l-.139-.678c.18.018.324-.03.438-.132.162-.144.252-.414.252-.756 0-.972-.72-2.213-1.565-2.7-.354-.203-.678-.245-.894-.125-.216.12-.336.42-.336.822 0 .45.15.965.42 1.463l-.594.33c-.33-.594-.51-1.23-.51-1.787 0-.654.24-1.158.672-1.41h.006ZM27.044 2.454c.438-.252.996-.21 1.572.12 1.068.618 1.907 2.064 1.907 3.287 0 .54-.162.978-.474 1.26-.21.192-.467.294-.755.306l-.138-.678c.18.018.324-.03.438-.132.162-.144.252-.414.252-.756 0-.971-.72-2.213-1.566-2.7-.354-.203-.678-.245-.894-.125-.216.12-.336.42-.336.822 0 .45.15.966.42 1.463l-.594.33c-.33-.593-.51-1.23-.51-1.787 0-.654.24-1.158.672-1.41h.006ZM31.046.162c.438-.252.996-.21 1.572.12 1.067.618 1.907 2.064 1.907 3.288 0 .54-.162.978-.474 1.26-.21.192-.468.294-.755.306l-.138-.678c.18.018.324-.03.438-.132.162-.144.252-.414.252-.756 0-.972-.72-2.214-1.566-2.7-.354-.204-.678-.246-.894-.126-.216.12-.336.42-.336.822 0 .45.15.966.42 1.464l-.594.33c-.33-.594-.51-1.23-.51-1.788 0-.654.24-1.158.672-1.41h.006Z"></path></svg>