<svg xmlns:xlink="http://www.w3.org/1999/xlink" xmlns="http://www.w3.org/2000/svg" width="100" height="25"><g><path d="M0,24L100,24L100,24L0,24Z" stroke="#7C7E8C" stroke-opacity="0.3" shape-rendering="geometricPrecision" stroke-width="1" style="stroke-dasharray: 3, 1.5;"></path><path d="M0,12.38499999999993L1.3333333333333333,17.33000000000014L2.6666666666666665,17.023333333333404L4,15.298333333333403L5.333333333333333,12.883333333333333L6.666666666666667,14.646666666666807L8,16.793333333333266L9.333333333333334,15.336666666666527L10.666666666666666,12.231666666666737L12,9.394999999999861L13.333333333333334,10.851666666666597L14.666666666666666,13.19000000000007L16,11.35L17.333333333333332,14.225L18.666666666666668,15.183333333333334L20,12.38499999999993L21.333333333333332,17.636666666666528L22.666666666666668,16.869999999999862L24,17.483333333333334L25.333333333333332,14.186666666666527L26.666666666666668,15.451666666666597L28,16.218333333333263L29.333333333333332,17.406666666666737L30.666666666666668,19.016666666666666L32,18.825L33.333333333333336,19.208333333333332L34.666666666666664,19.78333333333333L36,18.36500000000007L37.333333333333336,18.441666666666666L38.666666666666664,15.95L40,13.688333333333473L41.333333333333336,17.33000000000014L42.666666666666664,14.723333333333404L44,13.99499999999986L45.333333333333336,15.71999999999986L46.666666666666664,15.528333333333194L48,13.419999999999861L49.333333333333336,11.196666666666806L50.666666666666664,11.771666666666807L52,11.426666666666597L53.333333333333336,11.503333333333194L54.666666666666664,10.966666666666667L56,11.733333333333333L57.333333333333336,9.816666666666666L58.666666666666664,11.69499999999986L60,11.963333333333473L61.333333333333336,11.35L62.666666666666664,8.091666666666667L64,7.401666666666596L65.33333333333333,8.24499999999986L66.66666666666667,4.449999999999999L68,4.488333333333472L69.33333333333333,4.526666666666596L70.66666666666667,4.526666666666596L72,2.686666666666529L73.33333333333333,1.5366666666665267L74.66666666666667,3.3383333333334733L76,1L77.33333333333333,4.21999999999986L78.66666666666667,5.216666666666665L80,5.676666666666598L81.33333333333333,5.983333333333334L82.66666666666667,4.488333333333472L84,7.631666666666735L85.33333333333333,3.9900000000000695L86.66666666666667,4.105000000000139L88,5.369999999999859L89.33333333333333,3.951666666666597L90.66666666666667,2.1499999999999986L92,7.899999999999999L93.33333333333333,4.833333333333332L94.66666666666667,6.7116666666665274L96,4.411666666666527L97.33333333333333,2.341666666666665L98.66666666666667,6.328333333333195L98.66666666666667,6.328333333333195L97.33333333333333,2.341666666666665L96,4.411666666666527L94.66666666666667,6.7116666666665274L93.33333333333333,4.833333333333332L92,7.899999999999999L90.66666666666667,2.1499999999999986L89.33333333333333,3.951666666666597L88,5.369999999999859L86.66666666666667,4.105000000000139L85.33333333333333,3.9900000000000695L84,7.631666666666735L82.66666666666667,4.488333333333472L81.33333333333333,5.983333333333334L80,5.676666666666598L78.66666666666667,5.216666666666665L77.33333333333333,4.21999999999986L76,1L74.66666666666667,3.3383333333334733L73.33333333333333,1.5366666666665267L72,2.686666666666529L70.66666666666667,4.526666666666596L69.33333333333333,4.526666666666596L68,4.488333333333472L66.66666666666667,4.449999999999999L65.33333333333333,8.24499999999986L64,7.401666666666596L62.666666666666664,8.091666666666667L61.333333333333336,11.35L60,11.963333333333473L58.666666666666664,11.69499999999986L57.333333333333336,9.816666666666666L56,11.733333333333333L54.666666666666664,10.966666666666667L53.333333333333336,11.503333333333194L52,11.426666666666597L50.666666666666664,11.771666666666807L49.333333333333336,11.196666666666806L48,13.419999999999861L46.666666666666664,15.528333333333194L45.333333333333336,15.71999999999986L44,13.99499999999986L42.666666666666664,14.723333333333404L41.333333333333336,17.33000000000014L40,13.688333333333473L38.666666666666664,15.95L37.333333333333336,18.441666666666666L36,18.36500000000007L34.666666666666664,19.78333333333333L33.333333333333336,19.208333333333332L32,18.825L30.666666666666668,19.016666666666666L29.333333333333332,17.406666666666737L28,16.218333333333263L26.666666666666668,15.451666666666597L25.333333333333332,14.186666666666527L24,17.483333333333334L22.666666666666668,16.869999999999862L21.333333333333332,17.636666666666528L20,12.38499999999993L18.666666666666668,15.183333333333334L17.333333333333332,14.225L16,11.35L14.666666666666666,13.19000000000007L13.333333333333334,10.851666666666597L12,9.394999999999861L10.666666666666666,12.231666666666737L9.333333333333334,15.336666666666527L8,16.793333333333266L6.666666666666667,14.646666666666807L5.333333333333333,12.883333333333333L4,15.298333333333403L2.6666666666666665,17.023333333333404L1.3333333333333333,17.33000000000014L0,12.38499999999993Z" stroke="#00B386" stroke-opacity="1" shape-rendering="geometricPrecision" stroke-width="1.8px"></path></g></svg>